<?xml version="1.0" encoding="UTF-8"?>
<!-- Do not edit this file with editors other than draw.io -->
<!DOCTYPE svg PUBLIC "-//W3C//DTD SVG 1.1//EN" "http://www.w3.org/Graphics/SVG/1.1/DTD/svg11.dtd">
<svg xmlns="http://www.w3.org/2000/svg" xmlns:xlink="http://www.w3.org/1999/xlink" version="1.1" width="715px" height="118px" viewBox="-0.5 -0.5 715 118" content="&lt;mxfile host=&quot;Electron&quot; modified=&quot;2024-04-07T23:53:56.196Z&quot; agent=&quot;Mozilla/5.0 (Macintosh; Intel Mac OS X 10_15_7) AppleWebKit/537.36 (KHTML, like Gecko) draw.io/24.1.0 Chrome/120.0.6099.109 Electron/28.1.0 Safari/537.36&quot; etag=&quot;SlsArSNPxQSIqSyD-g2U&quot; version=&quot;24.1.0&quot; type=&quot;device&quot; scale=&quot;1&quot; border=&quot;20&quot;&gt;&#10;  &lt;diagram name=&quot;第 1 页&quot; id=&quot;1A22B6yVTup7RSfq2gA6&quot;&gt;&#10;    &lt;mxGraphModel dx=&quot;1098&quot; dy=&quot;723&quot; grid=&quot;1&quot; gridSize=&quot;10&quot; guides=&quot;1&quot; tooltips=&quot;1&quot; connect=&quot;1&quot; arrows=&quot;1&quot; fold=&quot;1&quot; page=&quot;1&quot; pageScale=&quot;1&quot; pageWidth=&quot;827&quot; pageHeight=&quot;1169&quot; math=&quot;0&quot; shadow=&quot;0&quot;&gt;&#10;      &lt;root&gt;&#10;        &lt;mxCell id=&quot;0&quot; /&gt;&#10;        &lt;mxCell id=&quot;1&quot; parent=&quot;0&quot; /&gt;&#10;        &lt;mxCell id=&quot;0iuSTPgNII2tOsQjbFGL-1&quot; value=&quot;&quot; style=&quot;sketch=0;outlineConnect=0;fontColor=#232F3E;gradientColor=none;fillColor=#7AA116;strokeColor=none;dashed=0;verticalLabelPosition=bottom;verticalAlign=top;align=center;html=1;fontSize=12;fontStyle=0;aspect=fixed;pointerEvents=1;shape=mxgraph.aws4.intelligent_tiering;&quot; vertex=&quot;1&quot; parent=&quot;1&quot;&gt;&#10;          &lt;mxGeometry x=&quot;260&quot; y=&quot;240&quot; width=&quot;75&quot; height=&quot;78&quot; as=&quot;geometry&quot; /&gt;&#10;        &lt;/mxCell&gt;&#10;        &lt;mxCell id=&quot;0iuSTPgNII2tOsQjbFGL-2&quot; value=&quot;&quot; style=&quot;sketch=0;outlineConnect=0;fontColor=#232F3E;gradientColor=none;fillColor=#7AA116;strokeColor=none;dashed=0;verticalLabelPosition=bottom;verticalAlign=top;align=center;html=1;fontSize=12;fontStyle=0;aspect=fixed;pointerEvents=1;shape=mxgraph.aws4.bucket;&quot; vertex=&quot;1&quot; parent=&quot;1&quot;&gt;&#10;          &lt;mxGeometry x=&quot;60&quot; y=&quot;240&quot; width=&quot;75&quot; height=&quot;78&quot; as=&quot;geometry&quot; /&gt;&#10;        &lt;/mxCell&gt;&#10;        &lt;mxCell id=&quot;0iuSTPgNII2tOsQjbFGL-3&quot; value=&quot;&quot; style=&quot;sketch=0;outlineConnect=0;fontColor=#232F3E;gradientColor=none;fillColor=#7AA116;strokeColor=none;dashed=0;verticalLabelPosition=bottom;verticalAlign=top;align=center;html=1;fontSize=12;fontStyle=0;aspect=fixed;pointerEvents=1;shape=mxgraph.aws4.one_zone_ia;&quot; vertex=&quot;1&quot; parent=&quot;1&quot;&gt;&#10;          &lt;mxGeometry x=&quot;360&quot; y=&quot;240&quot; width=&quot;75&quot; height=&quot;78&quot; as=&quot;geometry&quot; /&gt;&#10;        &lt;/mxCell&gt;&#10;        &lt;mxCell id=&quot;0iuSTPgNII2tOsQjbFGL-4&quot; value=&quot;&quot; style=&quot;sketch=0;outlineConnect=0;fontColor=#232F3E;gradientColor=none;fillColor=#7AA116;strokeColor=none;dashed=0;verticalLabelPosition=bottom;verticalAlign=top;align=center;html=1;fontSize=12;fontStyle=0;aspect=fixed;pointerEvents=1;shape=mxgraph.aws4.standard_ia;&quot; vertex=&quot;1&quot; parent=&quot;1&quot;&gt;&#10;          &lt;mxGeometry x=&quot;160&quot; y=&quot;240&quot; width=&quot;75&quot; height=&quot;78&quot; as=&quot;geometry&quot; /&gt;&#10;        &lt;/mxCell&gt;&#10;        &lt;mxCell id=&quot;0iuSTPgNII2tOsQjbFGL-5&quot; value=&quot;&quot; style=&quot;sketch=0;outlineConnect=0;fontColor=#232F3E;gradientColor=none;fillColor=#7AA116;strokeColor=none;dashed=0;verticalLabelPosition=bottom;verticalAlign=top;align=center;html=1;fontSize=12;fontStyle=0;aspect=fixed;pointerEvents=1;shape=mxgraph.aws4.simple_storage_service_s3_glacier_instant_retrieval;&quot; vertex=&quot;1&quot; parent=&quot;1&quot;&gt;&#10;          &lt;mxGeometry x=&quot;460&quot; y=&quot;240&quot; width=&quot;78&quot; height=&quot;78&quot; as=&quot;geometry&quot; /&gt;&#10;        &lt;/mxCell&gt;&#10;        &lt;mxCell id=&quot;0iuSTPgNII2tOsQjbFGL-6&quot; value=&quot;&quot; style=&quot;sketch=0;outlineConnect=0;fontColor=#232F3E;gradientColor=none;fillColor=#7AA116;strokeColor=none;dashed=0;verticalLabelPosition=bottom;verticalAlign=top;align=center;html=1;fontSize=12;fontStyle=0;aspect=fixed;pointerEvents=1;shape=mxgraph.aws4.glacier;&quot; vertex=&quot;1&quot; parent=&quot;1&quot;&gt;&#10;          &lt;mxGeometry x=&quot;560&quot; y=&quot;240&quot; width=&quot;75&quot; height=&quot;78&quot; as=&quot;geometry&quot; /&gt;&#10;        &lt;/mxCell&gt;&#10;        &lt;mxCell id=&quot;0iuSTPgNII2tOsQjbFGL-7&quot; value=&quot;&quot; style=&quot;sketch=0;outlineConnect=0;fontColor=#232F3E;gradientColor=none;fillColor=#7AA116;strokeColor=none;dashed=0;verticalLabelPosition=bottom;verticalAlign=top;align=center;html=1;fontSize=12;fontStyle=0;aspect=fixed;pointerEvents=1;shape=mxgraph.aws4.glacier_deep_archive;&quot; vertex=&quot;1&quot; parent=&quot;1&quot;&gt;&#10;          &lt;mxGeometry x=&quot;660&quot; y=&quot;240&quot; width=&quot;75&quot; height=&quot;78&quot; as=&quot;geometry&quot; /&gt;&#10;        &lt;/mxCell&gt;&#10;      &lt;/root&gt;&#10;    &lt;/mxGraphModel&gt;&#10;  &lt;/diagram&gt;&#10;&lt;/mxfile&gt;&#10;" style="background-color: rgb(255, 255, 255);"><defs/><rect fill="#ffffff" width="100%" height="100%" x="0" y="0"/><g><g><rect x="220" y="20" width="75" height="78" fill="none" stroke="none" pointer-events="all"/><path d="M 282.98 78.9 C 282.98 80.61 284.1 81.24 286.46 81.91 C 286.7 81.98 286.91 82.04 287.1 82.1 C 287.25 82.15 287.43 82.2 287.62 82.26 C 289.43 82.78 293.67 84 293.67 88.67 C 293.67 91.95 291.11 94.36 287.49 94.7 L 287.49 97.78 L 283.96 97.78 L 283.96 94.34 C 283.2 94.1 282.49 93.76 281.88 93.32 C 280.31 92.19 279.44 90.51 279.44 88.6 L 282.98 88.6 C 282.98 90.68 285.38 91.23 286.65 91.23 C 287.94 91.23 290.13 90.69 290.13 88.67 C 290.13 86.96 289.01 86.34 286.65 85.66 C 286.41 85.59 286.2 85.53 286.01 85.47 C 285.86 85.42 285.68 85.37 285.49 85.31 C 283.68 84.79 279.44 83.58 279.44 78.9 C 279.44 77.02 280.27 75.37 281.76 74.27 C 282.4 73.81 283.15 73.46 283.96 73.22 L 283.96 69.5 L 287.49 69.5 L 287.49 72.96 C 290.66 73.37 293.67 75.49 293.67 79.12 L 290.13 79.12 C 290.13 77.13 287.88 76.41 286.37 76.41 C 285.39 76.41 284.47 76.67 283.86 77.12 C 283.27 77.56 282.98 78.14 282.98 78.9 M 286.41 62.73 L 286.8 59.82 C 289.87 61.69 290.89 62.81 291.2 63.3 C 290.69 63.4 289.37 63.46 286.41 62.73 M 255.23 40.33 C 237.01 40.33 224.63 36 223.6 32.84 L 223.55 32.43 C 223.79 29.25 236.78 23.54 255.23 23.54 C 273.67 23.54 286.67 29.25 286.92 32.43 L 286.86 32.84 C 285.84 36 273.45 40.33 255.23 40.33 M 255.67 51.82 L 255.67 50.05 L 255.67 51.82 C 255.67 51.82 255.67 51.82 255.67 51.82 M 294.82 62.94 C 294.43 60.9 292.09 58.74 287.31 56.02 L 290.32 33.56 C 290.33 33.52 290.34 33.48 290.35 33.44 L 290.44 32.75 C 290.45 32.67 290.46 32.6 290.46 32.52 C 290.46 25.14 271.89 20 255.23 20 C 238.57 20 220.01 25.14 220.01 32.52 C 220.01 32.59 220.01 32.67 220.02 32.75 L 220.11 33.43 C 220.11 33.44 220.11 33.45 220.12 33.46 L 227.59 89.06 C 227.83 95.57 244.62 98 255.24 98 C 261.06 98 266.94 97.39 271.8 96.28 C 273.81 95.81 275.55 95.28 276.98 94.71 C 277.55 94.48 278.08 94.25 278.57 94.02 L 277.07 90.81 C 276.64 91.02 276.17 91.22 275.66 91.43 C 274.4 91.93 272.83 92.4 271.01 92.83 C 266.4 93.88 260.8 94.46 255.24 94.46 C 240.24 94.46 231.13 90.62 231.13 88.92 C 231.13 88.84 231.12 88.77 231.11 88.69 L 224.32 38.19 C 230.72 41.93 243.28 43.87 255.23 43.87 C 267.18 43.87 279.73 41.93 286.13 38.19 L 282.97 61.76 C 274.87 59.21 264.07 54.29 259.19 52 C 259.19 51.94 259.21 51.88 259.21 51.82 C 259.21 49.87 257.62 48.28 255.67 48.28 C 253.72 48.28 252.14 49.87 252.14 51.82 C 252.14 53.77 253.72 55.36 255.67 55.36 C 256.23 55.36 256.75 55.21 257.23 54.98 C 262.74 57.59 274.03 62.73 282.49 65.31 L 282.12 68.07 L 285.63 68.54 L 285.93 66.25 C 287.74 66.68 289.23 66.89 290.44 66.89 C 292.2 66.89 293.38 66.45 294.13 65.55 C 294.75 64.81 294.99 63.89 294.82 62.94" fill="#7aa116" stroke="none" pointer-events="all"/></g><g><rect x="20" y="20" width="75" height="78" fill="none" stroke="none" pointer-events="all"/><path d="M 86.4 62.77 L 86.8 59.82 C 89.96 61.75 90.94 62.86 91.22 63.33 C 90.38 63.58 88.69 63.36 86.4 62.77 Z M 55.06 52.06 C 55.06 51.97 55.14 51.89 55.23 51.89 C 55.26 51.89 55.28 51.91 55.3 51.92 L 55.17 52.18 C 55.12 52.17 55.06 52.13 55.06 52.06 Z M 79.34 88.69 C 79.33 88.77 79.33 88.85 79.33 88.92 C 79.33 89.2 78.65 90.24 75.67 91.42 C 74.34 91.95 72.77 92.42 71 92.82 C 66.44 93.88 60.84 94.46 55.23 94.46 C 40.24 94.46 31.14 90.62 31.14 88.92 C 31.14 88.85 31.14 88.77 31.12 88.69 L 24.33 38.21 C 24.77 38.46 25.23 38.71 25.73 38.94 C 25.87 39.01 26.02 39.07 26.16 39.14 C 26.59 39.34 27.03 39.53 27.49 39.71 C 27.69 39.79 27.89 39.87 28.09 39.94 C 28.58 40.13 29.09 40.31 29.61 40.48 C 29.76 40.53 29.91 40.58 30.06 40.63 C 30.74 40.84 31.43 41.04 32.15 41.23 C 32.35 41.28 32.56 41.33 32.76 41.38 C 33.31 41.52 33.87 41.66 34.45 41.79 C 34.7 41.84 34.95 41.9 35.2 41.95 C 35.84 42.09 36.51 42.22 37.18 42.34 C 37.32 42.37 37.46 42.39 37.61 42.42 C 38.42 42.56 39.25 42.69 40.09 42.82 C 40.33 42.85 40.57 42.88 40.81 42.91 C 41.45 43 42.09 43.08 42.75 43.16 C 43.01 43.19 43.28 43.22 43.55 43.25 C 44.33 43.33 45.13 43.41 45.93 43.48 C 46.02 43.49 46.12 43.5 46.21 43.5 C 47.1 43.58 48 43.64 48.9 43.69 C 49.16 43.7 49.42 43.71 49.67 43.73 C 50.35 43.76 51.03 43.79 51.71 43.81 C 51.98 43.82 52.24 43.83 52.51 43.83 C 53.42 43.85 54.33 43.87 55.23 43.87 C 56.13 43.87 57.04 43.85 57.95 43.83 C 58.22 43.83 58.48 43.82 58.75 43.81 C 59.43 43.79 60.11 43.76 60.79 43.73 C 61.05 43.71 61.3 43.7 61.56 43.69 C 62.46 43.64 63.36 43.58 64.25 43.5 C 64.35 43.5 64.45 43.48 64.54 43.48 C 65.34 43.41 66.13 43.33 66.91 43.25 C 67.19 43.22 67.45 43.19 67.72 43.16 C 68.37 43.08 69.01 43 69.65 42.91 C 69.89 42.88 70.14 42.85 70.38 42.82 C 71.22 42.69 72.04 42.56 72.86 42.42 C 73 42.39 73.15 42.37 73.29 42.34 C 73.96 42.22 74.62 42.09 75.27 41.95 C 75.52 41.9 75.77 41.84 76.02 41.79 C 76.59 41.66 77.15 41.52 77.71 41.38 C 77.91 41.33 78.12 41.28 78.32 41.23 C 79.04 41.04 79.73 40.84 80.4 40.63 C 80.56 40.58 80.7 40.53 80.85 40.48 C 81.38 40.31 81.89 40.13 82.38 39.94 C 82.58 39.87 82.78 39.79 82.97 39.71 C 83.44 39.53 83.88 39.34 84.31 39.14 C 84.45 39.07 84.6 39.01 84.74 38.95 C 85.23 38.71 85.7 38.46 86.14 38.21 L 82.97 61.77 C 76.53 59.7 67.48 55.95 58.92 51.88 C 58.83 49.92 57.22 48.35 55.23 48.35 C 53.19 48.35 51.52 50.02 51.52 52.06 C 51.52 54.11 53.19 55.77 55.23 55.77 C 56.04 55.77 56.78 55.51 57.39 55.07 C 65.06 58.75 74.85 63.1 82.49 65.3 Z M 55.23 23.54 C 73.68 23.54 86.67 29.26 86.91 32.43 L 86.87 32.8 C 86.84 32.91 86.77 33.02 86.71 33.13 C 86.66 33.23 86.63 33.31 86.56 33.41 C 86.48 33.52 86.37 33.63 86.27 33.74 C 86.18 33.84 86.1 33.94 85.99 34.03 C 85.87 34.14 85.72 34.25 85.57 34.36 C 85.44 34.47 85.33 34.57 85.17 34.67 C 85.01 34.78 84.82 34.89 84.64 35 C 84.46 35.1 84.3 35.21 84.11 35.31 C 83.91 35.42 83.68 35.52 83.47 35.63 C 83.25 35.74 83.04 35.84 82.8 35.95 C 82.57 36.05 82.31 36.15 82.07 36.25 C 81.8 36.36 81.55 36.47 81.27 36.57 C 81.01 36.67 80.71 36.77 80.44 36.86 C 80.13 36.97 79.84 37.07 79.52 37.18 C 79.22 37.27 78.89 37.36 78.58 37.45 C 78.24 37.55 77.92 37.65 77.56 37.75 C 77.22 37.84 76.86 37.93 76.5 38.02 C 76.13 38.11 75.78 38.2 75.4 38.29 C 75.01 38.38 74.6 38.46 74.2 38.54 C 73.82 38.62 73.44 38.7 73.04 38.78 C 72.61 38.86 72.16 38.93 71.72 39.01 C 71.31 39.08 70.91 39.15 70.49 39.22 C 70.03 39.29 69.54 39.35 69.06 39.42 C 68.63 39.48 68.21 39.54 67.76 39.6 C 67.25 39.66 66.7 39.71 66.16 39.77 C 65.73 39.81 65.31 39.86 64.87 39.9 C 64.27 39.96 63.65 40 63.04 40.04 C 62.63 40.07 62.23 40.11 61.81 40.14 C 61.14 40.17 60.43 40.2 59.74 40.23 C 59.35 40.24 58.98 40.27 58.59 40.28 C 57.5 40.31 56.37 40.33 55.23 40.33 C 54.09 40.33 52.97 40.31 51.87 40.28 C 51.48 40.27 51.1 40.24 50.71 40.23 C 50.02 40.2 49.33 40.17 48.66 40.14 C 48.21 40.11 47.79 40.07 47.36 40.04 C 46.77 40 46.17 39.96 45.59 39.9 C 45.15 39.86 44.73 39.81 44.3 39.77 C 43.76 39.71 43.22 39.66 42.7 39.6 C 42.26 39.54 41.84 39.48 41.41 39.42 C 40.93 39.35 40.44 39.29 39.97 39.22 C 39.53 39.15 39.12 39.07 38.7 39 C 38.27 38.93 37.84 38.86 37.43 38.78 C 37.02 38.7 36.64 38.62 36.24 38.53 C 35.85 38.45 35.44 38.37 35.07 38.29 C 34.68 38.2 34.33 38.11 33.96 38.02 C 33.61 37.93 33.24 37.84 32.9 37.75 C 32.54 37.65 32.22 37.55 31.88 37.45 C 31.56 37.36 31.24 37.27 30.94 37.18 C 30.62 37.07 30.32 36.97 30.02 36.86 C 29.74 36.76 29.45 36.67 29.2 36.57 C 28.91 36.47 28.66 36.36 28.39 36.25 C 28.15 36.15 27.89 36.05 27.66 35.95 C 27.43 35.84 27.22 35.74 27 35.63 C 26.79 35.52 26.56 35.42 26.36 35.31 C 26.17 35.21 26 35.1 25.83 34.99 C 25.65 34.89 25.45 34.78 25.29 34.67 C 25.14 34.57 25.02 34.46 24.89 34.36 C 24.75 34.25 24.59 34.14 24.48 34.03 C 24.37 33.93 24.29 33.83 24.2 33.74 C 24.1 33.63 23.98 33.52 23.91 33.41 C 23.84 33.31 23.81 33.22 23.76 33.12 C 23.7 33.01 23.63 32.9 23.6 32.8 L 23.55 32.43 C 23.8 29.25 36.79 23.54 55.23 23.54 Z M 94.82 62.95 C 94.44 60.91 92.09 58.75 87.31 56.02 L 90.35 33.45 L 90.35 33.44 L 90.35 33.44 L 90.44 32.75 C 90.45 32.67 90.46 32.59 90.46 32.52 C 90.46 25.14 71.89 20 55.23 20 C 38.57 20 20.01 25.14 20.01 32.52 C 20.01 32.6 20.01 32.67 20.02 32.75 L 20.11 33.44 L 20.11 33.45 L 27.6 89.06 C 27.83 95.57 44.62 98 55.23 98 C 61.1 98 66.98 97.39 71.8 96.27 C 73.74 95.83 75.48 95.3 76.97 94.71 C 80.81 93.2 82.79 91.3 82.86 89.06 L 85.95 66.17 C 87.63 66.53 89.16 66.75 90.44 66.75 C 92.15 66.75 93.44 66.39 94.13 65.56 C 94.75 64.82 94.99 63.89 94.82 62.95 Z" fill="#7aa116" stroke="none" pointer-events="all"/></g><g><rect x="320" y="20" width="75" height="78" fill="none" stroke="none" pointer-events="all"/><path d="M 384.93 80.27 C 384.44 80.27 384.04 79.87 384.04 79.39 C 384.04 78.9 384.44 78.5 384.93 78.5 C 385.42 78.5 385.82 78.9 385.82 79.39 C 385.82 79.87 385.42 80.27 384.93 80.27 M 384.93 74.95 C 382.49 74.95 380.5 76.94 380.5 79.39 C 380.5 81.83 382.49 83.82 384.93 83.82 C 387.38 83.82 389.36 81.83 389.36 79.39 C 389.36 76.94 387.38 74.95 384.93 74.95 M 384.63 93.02 C 381.58 88.29 377.9 81.65 377.9 78.89 C 377.9 74.89 380.92 71.63 384.63 71.63 C 388.34 71.63 391.36 74.89 391.36 78.89 C 391.36 81.65 387.68 88.29 384.63 93.02 M 384.63 68.09 C 378.97 68.09 374.36 72.93 374.36 78.89 C 374.36 84.27 382.27 95.92 383.17 97.23 C 383.5 97.71 384.05 98 384.63 98 C 385.21 98 385.76 97.71 386.09 97.23 C 386.99 95.92 394.9 84.27 394.9 78.89 C 394.9 72.93 390.29 68.09 384.63 68.09 M 355.23 23.55 C 373.67 23.55 386.67 29.26 386.91 32.43 L 386.86 32.78 C 386.82 32.93 386.74 33.08 386.65 33.24 C 386.61 33.29 386.6 33.34 386.56 33.39 C 386.46 33.54 386.31 33.69 386.16 33.85 C 386.1 33.9 386.06 33.96 386 34.01 C 385.83 34.17 385.62 34.33 385.41 34.48 C 385.34 34.54 385.27 34.59 385.19 34.65 C 384.96 34.81 384.68 34.97 384.4 35.13 C 384.31 35.18 384.23 35.24 384.13 35.29 C 383.82 35.46 383.48 35.62 383.12 35.79 C 383.03 35.84 382.94 35.88 382.84 35.92 C 382.44 36.11 382 36.28 381.55 36.46 C 381.47 36.49 381.41 36.52 381.33 36.55 C 380.8 36.74 380.25 36.94 379.66 37.13 C 379.64 37.13 379.62 37.14 379.6 37.15 C 374.03 38.93 365.58 40.32 355.24 40.32 C 340.3 40.32 329.29 37.41 325.24 34.63 C 324.93 34.42 324.67 34.21 324.44 34 C 324.41 33.97 324.4 33.94 324.37 33.92 C 324.18 33.74 324.02 33.56 323.89 33.38 C 323.86 33.33 323.85 33.28 323.82 33.24 C 323.72 33.08 323.64 32.93 323.6 32.78 L 323.55 32.43 C 323.8 29.26 336.79 23.55 355.23 23.55 M 391.19 63.3 C 390.68 63.39 389.37 63.45 386.41 62.72 L 386.8 59.83 C 389.88 61.7 390.89 62.81 391.19 63.3 M 375.66 91.42 C 374.41 91.92 372.84 92.39 371 92.82 C 366.4 93.87 360.8 94.45 355.24 94.45 C 340.24 94.45 331.13 90.61 331.13 88.92 C 331.13 88.84 331.13 88.76 331.12 88.69 L 324.33 38.21 C 324.74 38.44 325.17 38.67 325.63 38.9 C 325.91 39.03 326.21 39.16 326.51 39.29 C 326.77 39.41 327.02 39.52 327.29 39.63 C 327.62 39.76 327.97 39.9 328.32 40.03 C 328.56 40.12 328.81 40.2 329.05 40.28 C 330.4 40.75 331.86 41.17 333.41 41.54 C 333.61 41.59 333.81 41.64 334.02 41.69 C 334.54 41.81 335.06 41.92 335.6 42.03 C 335.73 42.06 335.87 42.09 336.01 42.11 C 337.83 42.48 339.74 42.78 341.71 43.03 C 341.82 43.05 341.94 43.06 342.05 43.08 C 344.83 43.42 347.7 43.65 350.61 43.77 L 350.86 43.78 C 352.32 43.83 353.78 43.87 355.23 43.87 C 356.66 43.87 358.1 43.83 359.54 43.78 C 359.67 43.77 359.8 43.77 359.94 43.76 C 362.02 43.68 364.08 43.53 366.11 43.33 C 366.23 43.32 366.36 43.31 366.48 43.3 C 367.08 43.23 367.67 43.16 368.26 43.09 C 368.5 43.06 368.73 43.03 368.96 43 C 369.54 42.93 370.11 42.86 370.67 42.77 C 370.75 42.76 370.82 42.75 370.89 42.74 C 371.99 42.57 373.06 42.38 374.11 42.18 C 374.4 42.12 374.7 42.07 374.99 42.01 C 375.43 41.91 375.87 41.82 376.3 41.72 C 376.63 41.64 376.95 41.57 377.28 41.49 C 377.67 41.39 378.07 41.3 378.46 41.19 C 379.08 41.02 379.69 40.85 380.28 40.66 C 380.59 40.57 380.88 40.46 381.18 40.36 C 381.54 40.24 381.89 40.12 382.23 39.99 C 382.53 39.89 382.81 39.78 383.09 39.66 C 383.44 39.52 383.77 39.38 384.1 39.23 C 384.33 39.12 384.57 39.02 384.79 38.92 C 385.26 38.69 385.71 38.46 386.12 38.21 L 382.96 61.75 C 374.88 59.21 364.11 54.31 359.22 52 C 359.22 51.97 359.23 51.94 359.23 51.91 C 359.23 49.95 357.64 48.36 355.68 48.36 C 353.73 48.36 352.14 49.95 352.14 51.91 C 352.14 53.86 353.73 55.45 355.68 55.45 C 356.28 55.45 356.83 55.29 357.32 55.03 C 362.88 57.66 374.08 62.75 382.48 65.31 L 382.42 65.76 L 385.71 66.2 C 387.62 66.66 389.18 66.9 390.44 66.9 C 392.19 66.9 393.38 66.45 394.13 65.55 C 394.75 64.81 394.99 63.89 394.82 62.94 C 394.43 60.9 392.09 58.74 387.31 56.02 L 390.33 33.56 C 390.33 33.52 390.35 33.48 390.35 33.44 L 390.44 32.75 C 390.45 32.67 390.46 32.6 390.46 32.52 C 390.46 25.14 371.89 20 355.23 20 C 338.57 20 320.01 25.14 320.01 32.52 C 320.01 32.6 320.01 32.67 320.02 32.75 L 320.11 33.44 C 320.11 33.46 320.12 33.48 320.12 33.5 L 327.59 89.06 C 327.82 95.57 344.62 98 355.24 98 C 361.06 98 366.94 97.39 371.81 96.28 C 373.82 95.8 375.56 95.27 376.96 94.72 C 377.48 94.51 377.96 94.3 378.4 94.1 L 376.9 90.88 C 376.53 91.05 376.12 91.24 375.66 91.42" fill="#7aa116" stroke="none" pointer-events="all"/></g><g><rect x="120" y="20" width="75" height="78" fill="none" stroke="none" pointer-events="all"/><path d="M 192.5 88.69 L 195 91.19 L 188.81 97.38 C 188.47 97.73 188.01 97.9 187.56 97.9 C 187.11 97.9 186.66 97.73 186.31 97.38 L 180.12 91.19 L 182.62 88.69 L 185.79 91.86 L 185.79 74.1 L 182.62 77.27 L 180.12 74.77 L 186.31 68.58 C 187 67.89 188.12 67.89 188.81 68.58 L 195 74.77 L 192.5 77.27 L 189.33 74.1 L 189.33 91.86 Z M 155.13 23.64 C 173.53 23.64 186.49 29.33 186.73 32.5 L 186.69 32.85 C 186.65 32.99 186.57 33.14 186.48 33.28 C 186.45 33.34 186.43 33.4 186.39 33.46 C 186.29 33.6 186.15 33.74 186.01 33.89 C 185.94 33.95 185.9 34.02 185.83 34.08 C 185.67 34.22 185.48 34.37 185.28 34.51 C 185.19 34.58 185.11 34.65 185.01 34.72 C 184.8 34.86 184.55 35.01 184.3 35.15 C 184.19 35.22 184.08 35.29 183.95 35.36 C 183.68 35.51 183.37 35.65 183.06 35.8 C 182.92 35.86 182.81 35.93 182.66 35.99 C 182.32 36.15 181.93 36.3 181.54 36.45 C 181.41 36.5 181.29 36.56 181.15 36.61 C 180.7 36.78 180.22 36.94 179.73 37.11 C 179.62 37.14 179.53 37.18 179.42 37.21 C 178.83 37.4 178.22 37.58 177.57 37.75 C 177.54 37.76 177.51 37.77 177.49 37.78 C 171.99 39.27 164.31 40.37 155.14 40.37 C 140.26 40.37 129.28 37.47 125.24 34.7 C 125.2 34.67 125.17 34.65 125.13 34.62 C 124.87 34.44 124.63 34.25 124.44 34.07 C 124.38 34.02 124.35 33.97 124.3 33.92 C 124.14 33.77 123.99 33.61 123.89 33.46 C 123.84 33.39 123.82 33.32 123.78 33.25 C 123.7 33.12 123.62 32.99 123.59 32.85 L 123.54 32.5 C 123.79 29.33 136.75 23.64 155.13 23.64 Z M 191.01 63.28 C 190.5 63.38 189.19 63.44 186.24 62.72 L 186.63 59.82 C 189.7 61.69 190.7 62.8 191.01 63.28 Z M 170.87 92.74 C 166.29 93.79 160.7 94.36 155.14 94.36 C 140.18 94.36 131.1 90.53 131.1 88.85 C 131.1 88.77 131.1 88.69 131.09 88.61 L 124.32 38.26 C 124.73 38.5 125.17 38.73 125.63 38.96 C 125.88 39.08 126.15 39.2 126.42 39.31 C 126.71 39.44 127 39.57 127.3 39.69 C 127.61 39.82 127.93 39.94 128.25 40.06 C 128.54 40.17 128.83 40.27 129.13 40.37 C 129.83 40.61 130.57 40.84 131.33 41.05 C 131.53 41.11 131.72 41.17 131.92 41.22 C 132.35 41.34 132.81 41.45 133.26 41.56 C 133.52 41.62 133.78 41.69 134.05 41.75 C 134.52 41.86 135 41.96 135.48 42.06 C 135.71 42.11 135.94 42.15 136.17 42.2 C 137.87 42.53 139.65 42.82 141.48 43.05 C 141.69 43.08 141.9 43.11 142.12 43.13 C 142.71 43.2 143.31 43.27 143.92 43.34 C 144.05 43.35 144.18 43.36 144.31 43.37 C 146.29 43.57 148.31 43.71 150.34 43.8 C 150.54 43.81 150.75 43.82 150.95 43.82 C 151.59 43.85 152.22 43.87 152.86 43.88 C 152.95 43.88 153.03 43.88 153.12 43.88 C 153.79 43.9 154.47 43.91 155.13 43.91 C 155.78 43.91 156.43 43.9 157.09 43.89 C 157.2 43.88 157.32 43.88 157.44 43.88 C 158.06 43.87 158.66 43.85 159.27 43.82 C 159.52 43.82 159.76 43.81 160.01 43.79 C 160.61 43.77 161.21 43.74 161.81 43.71 C 161.94 43.7 162.08 43.69 162.21 43.68 C 163.38 43.6 164.53 43.51 165.68 43.4 C 165.94 43.37 166.19 43.35 166.45 43.33 C 166.98 43.27 167.5 43.21 168.03 43.15 C 168.35 43.11 168.66 43.07 168.97 43.03 C 169.48 42.96 169.98 42.89 170.48 42.82 C 170.79 42.77 171.1 42.72 171.41 42.67 C 172.23 42.54 173.03 42.4 173.82 42.25 C 174.18 42.18 174.54 42.11 174.9 42.04 C 175.3 41.96 175.7 41.87 176.1 41.78 C 176.48 41.69 176.84 41.6 177.21 41.51 C 177.57 41.43 177.93 41.34 178.28 41.24 C 178.92 41.07 179.54 40.89 180.14 40.71 C 180.43 40.62 180.7 40.52 180.97 40.43 C 181.35 40.3 181.73 40.17 182.09 40.04 C 182.37 39.93 182.64 39.83 182.91 39.72 C 183.27 39.57 183.62 39.42 183.97 39.27 C 184.18 39.17 184.41 39.07 184.61 38.97 C 185.08 38.75 185.53 38.51 185.95 38.27 L 182.8 61.74 C 174.74 59.21 164 54.32 159.11 52.02 C 159.11 51.99 159.12 51.96 159.12 51.93 C 159.12 49.98 157.54 48.39 155.59 48.39 C 153.64 48.39 152.05 49.98 152.05 51.93 C 152.05 53.88 153.64 55.46 155.59 55.46 C 156.18 55.46 156.73 55.3 157.22 55.04 C 162.77 57.66 173.95 62.75 182.32 65.3 L 182.09 67.03 L 185.6 67.5 L 185.76 66.24 C 187.57 66.67 189.05 66.88 190.26 66.88 C 192.01 66.88 193.19 66.43 193.94 65.54 C 194.56 64.8 194.8 63.88 194.62 62.93 C 194.24 60.89 191.9 58.74 187.14 56.03 L 190.14 33.63 C 190.15 33.59 190.16 33.55 190.17 33.51 L 190.26 32.82 C 190.27 32.74 190.27 32.66 190.27 32.59 C 190.27 25.23 171.76 20.1 155.13 20.1 C 138.52 20.1 120 25.23 120 32.59 C 120 32.66 120.01 32.74 120.02 32.82 L 120.11 33.51 C 120.11 33.52 120.11 33.53 120.11 33.54 L 127.57 88.98 C 127.8 95.48 144.56 97.9 155.14 97.9 C 160.96 97.9 166.82 97.29 171.66 96.18 C 173.54 95.75 175.19 95.25 176.56 94.72 L 175.28 91.42 C 174.06 91.9 172.58 92.34 170.87 92.74 Z" fill="#7aa116" stroke="none" pointer-events="all"/></g><g><rect x="420" y="20" width="78" height="78" fill="none" stroke="none" pointer-events="all"/><path d="M 430.94 53.72 C 431.45 53.72 431.93 53.94 432.27 54.33 C 432.6 54.72 432.75 55.23 432.68 55.74 L 431.46 64.39 L 434.99 58.49 L 440.18 48.44 L 436.07 48.44 C 435.51 48.44 434.99 48.18 434.66 47.74 C 434.33 47.29 434.22 46.72 434.38 46.18 L 437.88 34.37 L 426.28 34.37 L 423.66 53.72 Z M 429.05 73.08 C 428.54 73.07 428.04 72.85 427.7 72.46 C 427.1 71.76 426.81 71.43 428.9 57.24 L 423.2 57.24 C 422.34 57.24 421.41 56.82 420.84 56.17 C 420.27 55.54 420 54.68 420.09 53.82 L 422.83 33.72 C 422.99 32.19 424.42 30.85 425.93 30.85 L 438.43 30.85 C 439.44 30.85 440.39 31.34 440.98 32.18 C 441.55 33 441.69 34.06 441.36 35.01 L 438.42 44.92 L 441.08 44.92 C 441.93 44.86 442.82 45.25 443.42 45.94 C 444.01 46.63 444.24 47.57 444.04 48.52 C 444 48.67 443.95 48.82 443.88 48.96 L 438.06 60.19 C 430.48 73.08 430.29 73.08 429.05 73.08 Z M 497.21 80.65 L 494.76 78.13 L 490.92 81.87 L 485.38 81.87 L 488.23 76.93 L 493.26 75.58 L 492.34 72.18 L 488.27 73.27 L 487.24 69.25 L 483.83 70.12 L 485.14 75.25 L 482.36 80.07 L 479.53 75.17 L 480.87 70.14 L 477.48 69.23 L 476.38 73.31 L 472.39 72.19 L 471.44 75.57 L 476.52 77.01 L 479.34 81.87 L 473.7 81.87 L 469.98 78.15 L 467.49 80.64 L 470.47 83.62 L 467.5 86.52 L 469.96 89.04 L 473.7 85.39 L 479.28 85.39 L 476.48 90.25 L 471.46 91.59 L 472.37 94.99 L 476.45 93.9 L 477.47 97.92 L 480.88 97.05 L 479.57 91.92 L 482.36 87.1 L 485.19 92.01 L 483.84 97.03 L 487.24 97.94 L 488.33 93.86 L 492.33 94.98 L 493.28 91.6 L 488.18 90.16 L 485.43 85.39 L 491.11 85.39 L 494.74 89.02 L 497.23 86.53 L 494.24 83.55 Z M 489.76 59.53 L 489.25 62.41 C 492.34 63.19 493.69 63.13 494.22 63.04 C 493.91 62.55 492.88 61.42 489.76 59.53 Z M 431.05 28.85 L 429.43 25.73 C 436.15 22.23 447.3 20.06 458.53 20.06 C 475.07 20.06 493.5 25.17 493.5 32.49 C 493.5 32.57 493.49 32.65 493.48 32.72 L 493.39 33.41 C 493.38 33.45 493.37 33.49 493.37 33.53 L 490.37 55.81 C 495.11 58.51 497.45 60.65 497.83 62.68 C 498 63.62 497.76 64.54 497.14 65.28 C 496.4 66.17 495.22 66.61 493.48 66.61 C 491.87 66.61 489.76 66.23 487.05 65.47 C 478.69 63.14 466.75 57.73 460.83 54.94 C 460.29 55.28 459.66 55.48 458.98 55.48 C 457.04 55.48 455.46 53.9 455.46 51.96 C 455.46 50.02 457.04 48.44 458.98 48.44 C 460.87 48.45 462.41 49.94 462.48 51.83 C 467.3 54.09 477.84 58.89 485.85 61.43 L 486.74 56.45 L 489.2 38.13 C 482.84 41.84 470.39 43.76 458.53 43.76 C 453.5 43.76 448.39 43.4 443.75 42.73 L 444.26 39.25 C 448.73 39.9 453.67 40.24 458.53 40.24 C 476.62 40.24 488.9 35.94 489.92 32.81 L 489.97 32.4 C 489.73 29.25 476.83 23.58 458.53 23.58 C 448 23.58 437.21 25.65 431.05 28.85 Z M 468.75 93.31 L 469.2 96.81 C 465.69 97.25 462.11 97.48 458.54 97.48 C 448 97.48 431.33 95.07 431.1 88.61 L 429.4 75.93 L 432.88 75.46 L 434.6 88.24 C 434.61 88.32 434.62 88.39 434.62 88.47 C 434.62 90.15 443.66 93.96 458.54 93.96 C 461.95 93.96 465.37 93.75 468.75 93.31 Z" fill="#7aa116" stroke="none" pointer-events="all"/></g><g><rect x="520" y="20" width="75" height="78" fill="none" stroke="none" pointer-events="all"/><path d="M 591.01 83.59 L 594 86.58 L 591.51 89.07 L 587.65 85.21 L 582.05 85.21 L 584.94 90.21 L 590.04 91.65 L 589.09 95.04 L 585.09 93.91 L 584 98 L 580.59 97.09 L 581.94 92.06 L 579.11 87.15 L 576.32 91.97 L 577.63 97.11 L 574.21 97.98 L 573.19 93.95 L 569.1 95.05 L 568.19 91.64 L 573.21 90.3 L 576.16 85.21 L 570.66 85.21 L 566.69 89.09 L 564.23 86.56 L 567.2 83.66 L 564.21 80.67 L 566.7 78.18 L 570.21 81.68 L 575.95 81.68 L 573.26 77.04 L 568.17 75.6 L 569.12 72.21 L 573.12 73.33 L 574.22 69.25 L 577.62 70.16 L 576.27 75.2 L 579.11 80.1 L 581.89 75.27 L 580.59 70.14 L 584 69.27 L 585.02 73.3 L 589.11 72.2 L 590.02 75.61 L 584.99 76.96 L 582.26 81.68 L 587.91 81.68 L 591.52 78.16 L 593.98 80.69 Z M 555.24 23.52 C 573.57 23.52 586.49 29.21 586.73 32.36 L 586.69 32.71 C 586.65 32.85 586.57 33 586.48 33.15 C 586.45 33.2 586.43 33.26 586.39 33.31 C 586.29 33.46 586.15 33.6 586.01 33.75 C 585.95 33.81 585.9 33.87 585.83 33.94 C 585.68 34.08 585.48 34.22 585.29 34.36 C 585.2 34.43 585.12 34.5 585.02 34.57 C 584.81 34.71 584.57 34.85 584.32 35 C 584.2 35.07 584.09 35.14 583.96 35.21 C 583.7 35.35 583.39 35.5 583.09 35.64 C 582.95 35.71 582.83 35.77 582.68 35.84 C 582.34 35.99 581.97 36.14 581.59 36.29 C 581.45 36.34 581.32 36.4 581.16 36.46 C 580.73 36.62 580.27 36.78 579.8 36.93 C 579.67 36.97 579.56 37.02 579.44 37.06 C 578.89 37.23 578.3 37.41 577.68 37.57 C 577.62 37.59 577.57 37.61 577.51 37.63 C 572.03 39.11 564.38 40.2 555.25 40.2 C 540.41 40.2 529.46 37.31 525.43 34.55 C 525.42 34.53 525.4 34.52 525.39 34.51 C 525.1 34.31 524.85 34.12 524.64 33.92 C 524.6 33.89 524.58 33.85 524.54 33.82 C 524.37 33.64 524.21 33.47 524.09 33.31 C 524.06 33.25 524.04 33.2 524.01 33.15 C 523.92 33 523.84 32.85 523.8 32.71 L 523.75 32.36 C 523.99 29.21 536.91 23.52 555.24 23.52 Z M 591 63.04 C 590.48 63.14 589.18 63.19 586.24 62.47 L 586.62 59.59 C 589.69 61.45 590.69 62.56 591 63.04 Z M 555.68 51.72 L 557.44 51.72 L 555.68 51.72 C 555.68 51.72 555.68 51.72 555.68 51.72 Z M 555.25 94.02 C 540.34 94.02 531.29 90.2 531.29 88.52 C 531.29 88.44 531.28 88.36 531.27 88.28 L 524.53 38.1 C 524.94 38.34 525.37 38.57 525.83 38.79 C 526.09 38.92 526.36 39.04 526.63 39.16 C 526.91 39.28 527.2 39.41 527.5 39.53 C 527.81 39.65 528.13 39.78 528.45 39.9 C 528.73 40 529.02 40.1 529.31 40.2 C 530.05 40.45 530.81 40.69 531.62 40.91 C 531.78 40.96 531.94 41.01 532.1 41.05 C 532.54 41.17 532.99 41.28 533.45 41.39 C 533.7 41.45 533.96 41.52 534.22 41.58 C 534.7 41.69 535.17 41.79 535.66 41.89 C 535.88 41.94 536.11 41.98 536.33 42.02 C 538.03 42.36 539.81 42.64 541.64 42.88 C 541.85 42.9 542.05 42.93 542.26 42.95 C 542.86 43.03 543.46 43.1 544.07 43.16 C 544.19 43.17 544.31 43.18 544.44 43.19 C 546.42 43.39 548.44 43.53 550.47 43.62 C 550.67 43.63 550.87 43.64 551.07 43.65 C 551.7 43.67 552.34 43.69 552.97 43.7 C 553.06 43.7 553.14 43.7 553.23 43.71 C 553.9 43.72 554.57 43.73 555.24 43.73 C 555.88 43.73 556.53 43.72 557.18 43.71 C 557.3 43.7 557.42 43.7 557.55 43.7 C 558.15 43.69 558.75 43.67 559.36 43.65 C 559.61 43.64 559.86 43.63 560.11 43.62 C 560.7 43.59 561.29 43.56 561.89 43.53 L 562.34 43.5 C 563.48 43.43 564.6 43.33 565.72 43.23 C 565.99 43.2 566.26 43.18 566.53 43.15 C 567.05 43.09 567.56 43.03 568.08 42.97 C 568.41 42.93 568.73 42.89 569.05 42.85 C 569.55 42.79 570.04 42.72 570.53 42.65 C 570.89 42.6 571.24 42.54 571.59 42.48 C 572.35 42.36 573.09 42.23 573.82 42.09 C 574.2 42.02 574.58 41.94 574.95 41.87 C 575.35 41.78 575.74 41.7 576.12 41.61 C 576.51 41.52 576.89 41.43 577.27 41.34 C 577.61 41.25 577.96 41.17 578.3 41.08 C 578.94 40.91 579.57 40.73 580.18 40.53 C 580.45 40.45 580.7 40.36 580.96 40.27 C 581.36 40.14 581.75 40.01 582.12 39.87 C 582.39 39.77 582.65 39.66 582.91 39.56 C 583.28 39.41 583.65 39.25 584 39.09 C 584.21 39 584.42 38.91 584.61 38.82 C 585.09 38.59 585.54 38.35 585.96 38.11 L 582.81 61.51 C 574.77 58.98 564.05 54.1 559.19 51.81 C 559.19 51.78 559.2 51.75 559.2 51.72 C 559.2 49.78 557.62 48.2 555.68 48.2 C 553.74 48.2 552.15 49.78 552.15 51.72 C 552.15 53.66 553.74 55.25 555.68 55.25 C 556.27 55.25 556.83 55.08 557.32 54.82 C 562.84 57.43 573.98 62.5 582.34 65.05 L 582.18 66.17 L 585.68 66.64 L 585.76 65.99 C 587.56 66.41 589.04 66.62 590.24 66.62 C 591.99 66.62 593.17 66.18 593.92 65.29 C 594.53 64.55 594.78 63.63 594.6 62.69 C 594.22 60.66 591.88 58.51 587.13 55.81 L 590.14 33.48 C 590.14 33.44 590.15 33.4 590.16 33.36 L 590.25 32.68 C 590.26 32.6 590.26 32.52 590.26 32.45 C 590.26 25.11 571.81 20 555.24 20 C 538.68 20 520.22 25.11 520.22 32.45 C 520.22 32.52 520.23 32.6 520.24 32.68 L 520.33 33.36 L 520.34 33.42 L 527.77 88.65 C 528 95.13 544.7 97.54 555.25 97.54 C 558.83 97.54 562.42 97.32 565.93 96.87 L 565.48 93.37 C 562.12 93.8 558.68 94.02 555.25 94.02 Z" fill="#7aa116" stroke="none" pointer-events="all"/></g><g><rect x="620" y="20" width="75" height="78" fill="none" stroke="none" pointer-events="all"/><path d="M 692.27 86.69 L 694.32 88.74 L 691.82 91.23 L 689.27 88.68 L 689.27 88.71 L 685.65 88.71 L 687.25 91.5 L 691.07 92.58 L 690.11 95.98 L 687.39 95.21 L 686.64 98 L 683.23 97.09 L 684.23 93.33 L 682.46 90.25 L 680.71 93.27 L 681.69 97.11 L 678.27 97.98 L 677.57 95.24 L 674.78 95.98 L 673.86 92.57 L 677.61 91.57 L 679.26 88.71 L 675.67 88.71 L 673.07 91.25 L 670.61 88.72 L 672.64 86.74 L 670.59 84.7 L 673.09 82.2 L 676.07 85.18 L 679.53 85.18 L 677.65 81.93 L 673.84 80.86 L 674.8 77.46 L 677.52 78.23 L 678.27 75.44 L 681.68 76.35 L 680.68 80.11 L 682.46 83.19 L 684.2 80.17 L 683.22 76.33 L 686.64 75.46 L 687.34 78.2 L 690.13 77.45 L 691.05 80.86 L 687.29 81.87 L 685.38 85.18 L 688.77 85.18 L 691.84 82.19 L 694.3 84.72 Z M 667.02 86.69 L 669.06 88.74 L 666.56 91.23 L 664.04 88.71 L 660.39 88.71 L 662 91.5 L 665.81 92.58 L 664.85 95.98 L 662.13 95.21 L 661.38 98 L 657.97 97.09 L 658.98 93.34 L 657.2 90.25 L 655.45 93.27 L 656.43 97.11 L 653.01 97.98 L 652.31 95.24 L 649.52 95.98 L 648.6 92.57 L 652.35 91.57 L 654 88.71 L 650.42 88.71 L 647.81 91.25 L 645.35 88.72 L 647.38 86.74 L 645.33 84.7 L 647.83 82.2 L 650.81 85.18 L 654.27 85.18 L 652.39 81.93 L 648.58 80.86 L 649.54 77.46 L 652.26 78.23 L 653.01 75.44 L 656.42 76.35 L 655.42 80.11 L 657.2 83.19 L 658.94 80.16 L 657.96 76.33 L 661.39 75.46 L 662.08 78.2 L 664.87 77.45 L 665.79 80.86 L 662.03 81.87 L 660.12 85.18 L 663.51 85.18 L 666.58 82.19 L 669.04 84.72 Z M 655.24 23.53 C 673.62 23.53 686.58 29.23 686.82 32.4 L 686.78 32.73 C 686.73 32.9 686.64 33.06 686.54 33.22 C 686.52 33.26 686.51 33.3 686.48 33.34 C 686.37 33.51 686.21 33.67 686.04 33.84 C 686 33.88 685.97 33.92 685.92 33.97 C 685.74 34.13 685.52 34.3 685.29 34.47 C 685.23 34.52 685.18 34.56 685.11 34.6 C 684.86 34.78 684.57 34.95 684.26 35.12 C 684.19 35.16 684.14 35.2 684.06 35.24 C 683.73 35.42 683.35 35.6 682.96 35.78 C 682.9 35.81 682.84 35.84 682.78 35.88 C 682.34 36.07 681.87 36.26 681.38 36.45 C 681.34 36.47 681.31 36.48 681.27 36.49 C 675.82 38.55 666.69 40.26 655.24 40.26 C 640.35 40.26 629.37 37.36 625.34 34.58 C 625.33 34.58 625.33 34.58 625.33 34.58 C 625.03 34.37 624.76 34.16 624.54 33.96 C 624.51 33.93 624.49 33.9 624.46 33.87 C 624.28 33.7 624.12 33.52 623.99 33.34 C 623.96 33.29 623.95 33.25 623.92 33.2 C 623.82 33.04 623.74 32.89 623.7 32.74 L 623.66 32.4 C 623.89 29.23 636.85 23.53 655.24 23.53 Z M 691.09 63.17 C 690.57 63.26 689.26 63.31 686.31 62.6 L 686.7 59.7 C 689.76 61.56 690.77 62.68 691.09 63.17 Z M 655.71 51.63 L 657.48 51.63 L 655.71 51.63 C 655.71 51.63 655.71 51.63 655.71 51.63 Z M 631.21 88.71 C 631.21 88.63 631.21 88.56 631.2 88.48 L 624.43 38.15 C 624.84 38.39 625.27 38.62 625.73 38.84 C 626 38.97 626.3 39.1 626.59 39.23 C 626.85 39.34 627.11 39.46 627.39 39.57 C 627.72 39.7 628.05 39.84 628.4 39.96 C 628.65 40.06 628.91 40.14 629.16 40.23 C 630.5 40.69 631.94 41.11 633.48 41.48 C 633.68 41.53 633.88 41.57 634.09 41.62 C 634.61 41.74 635.13 41.86 635.66 41.97 C 635.8 41.99 635.94 42.02 636.08 42.05 C 637.89 42.41 639.79 42.71 641.75 42.96 C 641.87 42.97 641.98 42.99 642.1 43.01 C 644.86 43.34 647.73 43.58 650.63 43.69 C 650.71 43.7 650.8 43.7 650.89 43.7 C 652.34 43.76 653.79 43.8 655.24 43.8 C 656.67 43.8 658.1 43.76 659.54 43.71 C 659.67 43.7 659.79 43.7 659.92 43.69 C 662.02 43.6 664.1 43.46 666.14 43.25 C 666.24 43.24 666.34 43.24 666.44 43.23 C 667.05 43.16 667.65 43.09 668.25 43.02 C 668.47 42.99 668.68 42.96 668.9 42.94 C 669.48 42.86 670.07 42.78 670.64 42.7 C 670.67 42.7 670.69 42.69 670.72 42.69 C 671.87 42.51 673 42.32 674.1 42.1 C 674.37 42.05 674.65 42 674.92 41.94 C 675.38 41.85 675.82 41.75 676.26 41.65 C 676.58 41.58 676.88 41.5 677.19 41.43 C 677.6 41.33 678.01 41.23 678.41 41.12 C 678.99 40.97 679.55 40.81 680.09 40.64 C 680.45 40.52 680.79 40.41 681.14 40.29 C 681.48 40.18 681.82 40.06 682.15 39.94 C 682.45 39.83 682.74 39.71 683.02 39.6 C 683.36 39.46 683.68 39.32 684 39.18 C 684.24 39.07 684.49 38.97 684.71 38.86 C 685.18 38.63 685.62 38.4 686.04 38.16 L 682.88 61.62 C 674.83 59.09 664.1 54.21 659.22 51.91 C 659.22 51.82 659.24 51.72 659.24 51.63 C 659.24 49.68 657.66 48.1 655.71 48.1 C 653.76 48.1 652.18 49.68 652.18 51.63 C 652.18 53.57 653.76 55.16 655.71 55.16 C 656.23 55.16 656.71 55.04 657.15 54.84 C 662.63 57.44 673.94 62.59 682.4 65.17 L 681.41 72.56 L 684.91 73.04 L 685.84 66.12 C 687.64 66.54 689.13 66.76 690.34 66.76 C 692.09 66.76 693.27 66.31 694.02 65.42 C 694.64 64.68 694.88 63.75 694.7 62.81 C 694.32 60.77 691.98 58.62 687.21 55.91 L 690.22 33.55 C 690.23 33.5 690.25 33.45 690.25 33.4 L 690.34 32.71 C 690.35 32.64 690.36 32.56 690.36 32.48 C 690.36 25.13 671.85 20 655.24 20 C 638.63 20 620.12 25.13 620.12 32.48 C 620.12 32.56 620.13 32.64 620.13 32.71 L 620.22 33.4 C 620.23 33.42 620.23 33.44 620.24 33.46 L 627.68 88.85 C 627.86 93.83 637.5 96.03 643.27 96.89 L 643.8 93.4 C 634.2 91.96 631.21 89.46 631.21 88.71 Z" fill="#7aa116" stroke="none" pointer-events="all"/></g></g></svg>